<?xml version="1.0" encoding="UTF-8" standalone="no"?>
<!DOCTYPE svg PUBLIC "-//W3C//DTD SVG 1.1//EN"
 "http://www.w3.org/Graphics/SVG/1.1/DTD/svg11.dtd">
<!-- Generated by graphviz version 2.43.0 (0)
 -->
<!-- Title: G Pages: 1 -->
<svg width="1868pt" height="666pt"
 viewBox="0.00 0.00 1868.00 666.00" xmlns="http://www.w3.org/2000/svg" xmlns:xlink="http://www.w3.org/1999/xlink">
<g id="graph0" class="graph" transform="scale(1 1) rotate(0) translate(4 662)">
<title>G</title>
<polygon fill="white" stroke="transparent" points="-4,4 -4,-662 1864,-662 1864,4 -4,4"/>
<!-- 0x00124b001949d694 -->
<g id="node1" class="node">
<title>0x00124b001949d694</title>
<polygon fill="#e04e5d" stroke="black" stroke-width="2" points="708.5,-366.5 708.5,-435.5 954.5,-435.5 954.5,-366.5 708.5,-366.5"/>
<text text-anchor="middle" x="831.5" y="-420.3" font-family="Times,serif" font-size="14.00" fill="#ffffff">Coordinator</text>
<polyline fill="none" stroke="black" stroke-width="2" points="708.5,-412.5 954.5,-412.5 "/>
<text text-anchor="middle" x="831.5" y="-397.3" font-family="Times,serif" font-size="14.00" fill="#ffffff">0x00124b001949d694 (0x0000)</text>
<polyline fill="none" stroke="black" stroke-width="2" points="708.5,-389.5 954.5,-389.5 "/>
<text text-anchor="middle" x="831.5" y="-374.3" font-family="Times,serif" font-size="14.00" fill="#ffffff">0 seconds ago</text>
</g>
<!-- 0x000d6ffffe62dab9 -->
<g id="node2" class="node">
<title>0x000d6ffffe62dab9</title>
<path fill="#4ea3e0" stroke="black" d="M488,-144.5C488,-144.5 1175,-144.5 1175,-144.5 1181,-144.5 1187,-150.5 1187,-156.5 1187,-156.5 1187,-224.5 1187,-224.5 1187,-230.5 1181,-236.5 1175,-236.5 1175,-236.5 488,-236.5 488,-236.5 482,-236.5 476,-230.5 476,-224.5 476,-224.5 476,-156.5 476,-156.5 476,-150.5 482,-144.5 488,-144.5"/>
<text text-anchor="middle" x="831.5" y="-221.3" font-family="Times,serif" font-size="14.00" fill="#ffffff">IKEA/Lampe/Buero_Lampe</text>
<polyline fill="none" stroke="black" points="476,-213.5 1187,-213.5 "/>
<text text-anchor="middle" x="831.5" y="-198.3" font-family="Times,serif" font-size="14.00" fill="#ffffff">0x000d6ffffe62dab9 (0xe740)</text>
<polyline fill="none" stroke="black" points="476,-190.5 1187,-190.5 "/>
<text text-anchor="middle" x="831.5" y="-175.3" font-family="Times,serif" font-size="14.00" fill="#ffffff">IKEA TRADFRI LED bulb E27 1000 lumen, dimmable, white spectrum, opal white (LED1732G11)</text>
<polyline fill="none" stroke="black" points="476,-167.5 1187,-167.5 "/>
<text text-anchor="middle" x="831.5" y="-152.3" font-family="Times,serif" font-size="14.00" fill="#ffffff">7 minutes, 43 seconds ago</text>
</g>
<!-- 0x00124b001949d694&#45;&gt;0x000d6ffffe62dab9 -->
<g id="edge1" class="edge">
<title>0x00124b001949d694&#45;&gt;0x000d6ffffe62dab9</title>
<path fill="none" stroke="#994444" stroke-width="0.5" d="M792.43,-366.29C787.99,-360.65 784.12,-354.51 781.5,-348 766.06,-309.66 767.97,-294.06 781.5,-255 782.64,-251.72 784.02,-248.48 785.59,-245.3"/>
<polygon fill="#994444" stroke="#994444" stroke-width="0.5" points="788.67,-246.97 790.48,-236.54 782.55,-243.57 788.67,-246.97"/>
<text text-anchor="middle" x="795.5" y="-297.8" font-family="Times,serif" font-size="14.00">255</text>
</g>
<!-- 0xcc86ecfffe1ef7f0 -->
<g id="node3" class="node">
<title>0xcc86ecfffe1ef7f0</title>
<path fill="#4ea3e0" stroke="black" d="M694.5,-0.5C694.5,-0.5 968.5,-0.5 968.5,-0.5 974.5,-0.5 980.5,-6.5 980.5,-12.5 980.5,-12.5 980.5,-80.5 980.5,-80.5 980.5,-86.5 974.5,-92.5 968.5,-92.5 968.5,-92.5 694.5,-92.5 694.5,-92.5 688.5,-92.5 682.5,-86.5 682.5,-80.5 682.5,-80.5 682.5,-12.5 682.5,-12.5 682.5,-6.5 688.5,-0.5 694.5,-0.5"/>
<text text-anchor="middle" x="831.5" y="-77.3" font-family="Times,serif" font-size="14.00" fill="#ffffff">IKEA/SignalVerstarker</text>
<polyline fill="none" stroke="black" points="682.5,-69.5 980.5,-69.5 "/>
<text text-anchor="middle" x="831.5" y="-54.3" font-family="Times,serif" font-size="14.00" fill="#ffffff">0xcc86ecfffe1ef7f0 (0x05a8)</text>
<polyline fill="none" stroke="black" points="682.5,-46.5 980.5,-46.5 "/>
<text text-anchor="middle" x="831.5" y="-31.3" font-family="Times,serif" font-size="14.00" fill="#ffffff">IKEA TRADFRI signal repeater (E1746)</text>
<polyline fill="none" stroke="black" points="682.5,-23.5 980.5,-23.5 "/>
<text text-anchor="middle" x="831.5" y="-8.3" font-family="Times,serif" font-size="14.00" fill="#ffffff">9 minutes, 44 seconds ago</text>
</g>
<!-- 0x00124b001949d694&#45;&gt;0xcc86ecfffe1ef7f0 -->
<g id="edge2" class="edge">
<title>0x00124b001949d694&#45;&gt;0xcc86ecfffe1ef7f0</title>
<path fill="none" stroke="#994444" stroke-width="0.5" d="M954.69,-395.39C1092.06,-388.96 1298.28,-374.92 1322.5,-348 1350.15,-317.27 1340.6,-292.16 1322.5,-255 1316.81,-243.33 1309.43,-245.35 1299.5,-237 1252.3,-197.3 1250.73,-173.38 1196.5,-144 1133.32,-109.78 1057.32,-87.17 991.07,-72.5"/>
<polygon fill="#994444" stroke="#994444" stroke-width="0.5" points="991.46,-69.01 980.94,-70.31 989.97,-75.85 991.46,-69.01"/>
<text text-anchor="middle" x="1309" y="-186.8" font-family="Times,serif" font-size="14.00">96</text>
</g>
<!-- 0x000d6ffffe62dab9&#45;&gt;0x00124b001949d694 -->
<g id="edge9" class="edge">
<title>0x000d6ffffe62dab9&#45;&gt;0x00124b001949d694</title>
<path fill="none" stroke="#009900" stroke-width="2" d="M831.5,-236.76C831.5,-272 831.5,-320.64 831.5,-355.64"/>
<polygon fill="#009900" stroke="#009900" stroke-width="2" points="828,-356.04 831.5,-366.04 835,-356.04 828,-356.04"/>
<text text-anchor="middle" x="1076.5" y="-297.8" font-family="Times,serif" font-size="14.00">146 (routes: 0xfae9,0xe805,0x1294,0x9865,0x05a8,0x2741,0xb161)</text>
</g>
<!-- 0x000d6ffffe62dab9&#45;&gt;0xcc86ecfffe1ef7f0 -->
<g id="edge10" class="edge">
<title>0x000d6ffffe62dab9&#45;&gt;0xcc86ecfffe1ef7f0</title>
<path fill="none" stroke="#994444" stroke-width="0.5" d="M790.48,-144.46C786.84,-138.57 783.7,-132.36 781.5,-126 778.68,-117.86 779.2,-109.7 781.8,-101.89"/>
<polygon fill="#994444" stroke="#994444" stroke-width="0.5" points="785.08,-103.12 785.91,-92.56 778.68,-100.3 785.08,-103.12"/>
<text text-anchor="middle" x="795.5" y="-114.8" font-family="Times,serif" font-size="14.00">121</text>
</g>
<!-- 0xcc86ecfffe1ef7f0&#45;&gt;0x00124b001949d694 -->
<g id="edge11" class="edge">
<title>0xcc86ecfffe1ef7f0&#45;&gt;0x00124b001949d694</title>
<path fill="none" stroke="#994444" stroke-width="0.5" d="M980.64,-59.43C1105.61,-72.51 1271,-98.03 1318.5,-144 1384.18,-207.56 1405.78,-280.19 1344.5,-348 1319.42,-375.75 1108.48,-389.43 965.02,-395.58"/>
<polygon fill="#994444" stroke="#994444" stroke-width="0.5" points="964.65,-392.09 954.81,-396.01 964.95,-399.09 964.65,-392.09"/>
<text text-anchor="middle" x="1386" y="-186.8" font-family="Times,serif" font-size="14.00">44</text>
</g>
<!-- 0xcc86ecfffe1ef7f0&#45;&gt;0x000d6ffffe62dab9 -->
<g id="edge12" class="edge">
<title>0xcc86ecfffe1ef7f0&#45;&gt;0x000d6ffffe62dab9</title>
<path fill="none" stroke="#009900" stroke-width="2" d="M831.5,-92.88C831.5,-105.95 831.5,-120.35 831.5,-133.96"/>
<polygon fill="#009900" stroke="#009900" stroke-width="2" points="828,-134.18 831.5,-144.18 835,-134.18 828,-134.18"/>
<text text-anchor="middle" x="907" y="-114.8" font-family="Times,serif" font-size="14.00">136 (routes: 0x2741)</text>
</g>
<!-- 0xbc33acfffea786d4 -->
<g id="node4" class="node">
<title>0xbc33acfffea786d4</title>
<path fill="#fff8ce" stroke="black" stroke-dasharray="5,2" d="M12,-454.5C12,-454.5 329,-454.5 329,-454.5 335,-454.5 341,-460.5 341,-466.5 341,-466.5 341,-534.5 341,-534.5 341,-540.5 335,-546.5 329,-546.5 329,-546.5 12,-546.5 12,-546.5 6,-546.5 0,-540.5 0,-534.5 0,-534.5 0,-466.5 0,-466.5 0,-460.5 6,-454.5 12,-454.5"/>
<text text-anchor="middle" x="170.5" y="-531.3" font-family="Times,serif" font-size="14.00" fill="#000000">IKEA/Bewegungsmelder/Abstellraum</text>
<polyline fill="none" stroke="black" stroke-dasharray="5,2" points="0,-523.5 341,-523.5 "/>
<text text-anchor="middle" x="170.5" y="-508.3" font-family="Times,serif" font-size="14.00" fill="#000000">0xbc33acfffea786d4 (0x1294)</text>
<polyline fill="none" stroke="black" stroke-dasharray="5,2" points="0,-500.5 341,-500.5 "/>
<text text-anchor="middle" x="170.5" y="-485.3" font-family="Times,serif" font-size="14.00" fill="#000000">IKEA TRADFRI motion sensor (E1525/E1745)</text>
<polyline fill="none" stroke="black" stroke-dasharray="5,2" points="0,-477.5 341,-477.5 "/>
<text text-anchor="middle" x="170.5" y="-462.3" font-family="Times,serif" font-size="14.00" fill="#000000">1 minute, 28 seconds ago</text>
</g>
<!-- 0xbc33acfffea786d4&#45;&gt;0x000d6ffffe62dab9 -->
<g id="edge3" class="edge">
<title>0xbc33acfffea786d4&#45;&gt;0x000d6ffffe62dab9</title>
<path fill="none" stroke="#994444" d="M260.4,-454.46C323.12,-424.9 409.57,-387.81 489.5,-366 546.2,-350.53 571.3,-380.15 620.5,-348 661.08,-321.48 640.61,-286.45 677.5,-255 682.95,-250.36 688.78,-246.02 694.87,-241.97"/>
<polygon fill="#994444" stroke="#994444" points="696.75,-244.92 703.33,-236.62 693.01,-239 696.75,-244.92"/>
<text text-anchor="middle" x="503.5" y="-397.3" font-family="Times,serif" font-size="14.00">129</text>
</g>
<!-- 0x5c0272fffed27765 -->
<g id="node5" class="node">
<title>0x5c0272fffed27765</title>
<path fill="#fff8ce" stroke="black" stroke-dasharray="5,2" d="M283,-255.5C283,-255.5 600,-255.5 600,-255.5 606,-255.5 612,-261.5 612,-267.5 612,-267.5 612,-335.5 612,-335.5 612,-341.5 606,-347.5 600,-347.5 600,-347.5 283,-347.5 283,-347.5 277,-347.5 271,-341.5 271,-335.5 271,-335.5 271,-267.5 271,-267.5 271,-261.5 277,-255.5 283,-255.5"/>
<text text-anchor="middle" x="441.5" y="-332.3" font-family="Times,serif" font-size="14.00" fill="#000000">IKEA/Bewegungsmelder/GastWC</text>
<polyline fill="none" stroke="black" stroke-dasharray="5,2" points="271,-324.5 612,-324.5 "/>
<text text-anchor="middle" x="441.5" y="-309.3" font-family="Times,serif" font-size="14.00" fill="#000000">0x5c0272fffed27765 (0x2741)</text>
<polyline fill="none" stroke="black" stroke-dasharray="5,2" points="271,-301.5 612,-301.5 "/>
<text text-anchor="middle" x="441.5" y="-286.3" font-family="Times,serif" font-size="14.00" fill="#000000">IKEA TRADFRI motion sensor (E1525/E1745)</text>
<polyline fill="none" stroke="black" stroke-dasharray="5,2" points="271,-278.5 612,-278.5 "/>
<text text-anchor="middle" x="441.5" y="-263.3" font-family="Times,serif" font-size="14.00" fill="#000000">1 hour, 27 minutes ago</text>
</g>
<!-- 0x5c0272fffed27765&#45;&gt;0xcc86ecfffe1ef7f0 -->
<g id="edge4" class="edge">
<title>0x5c0272fffed27765&#45;&gt;0xcc86ecfffe1ef7f0</title>
<path fill="none" stroke="#994444" d="M429.96,-255.37C424.05,-221.08 422.58,-174.73 447.5,-144 476.46,-108.3 579.98,-83.56 672.24,-68.08"/>
<polygon fill="#994444" stroke="#994444" points="672.98,-71.5 682.28,-66.42 671.84,-64.59 672.98,-71.5"/>
<text text-anchor="middle" x="457" y="-186.8" font-family="Times,serif" font-size="14.00">94</text>
</g>
<!-- 0x847127fffed29a06 -->
<g id="node6" class="node">
<title>0x847127fffed29a06</title>
<path fill="#fff8ce" stroke="black" stroke-dasharray="5,2" d="M807,-565.5C807,-565.5 1124,-565.5 1124,-565.5 1130,-565.5 1136,-571.5 1136,-577.5 1136,-577.5 1136,-645.5 1136,-645.5 1136,-651.5 1130,-657.5 1124,-657.5 1124,-657.5 807,-657.5 807,-657.5 801,-657.5 795,-651.5 795,-645.5 795,-645.5 795,-577.5 795,-577.5 795,-571.5 801,-565.5 807,-565.5"/>
<text text-anchor="middle" x="965.5" y="-642.3" font-family="Times,serif" font-size="14.00" fill="#000000">IKEA/Bewegungsmelder/Werkstatt</text>
<polyline fill="none" stroke="black" stroke-dasharray="5,2" points="795,-634.5 1136,-634.5 "/>
<text text-anchor="middle" x="965.5" y="-619.3" font-family="Times,serif" font-size="14.00" fill="#000000">0x847127fffed29a06 (0xfae9)</text>
<polyline fill="none" stroke="black" stroke-dasharray="5,2" points="795,-611.5 1136,-611.5 "/>
<text text-anchor="middle" x="965.5" y="-596.3" font-family="Times,serif" font-size="14.00" fill="#000000">IKEA TRADFRI motion sensor (E1525/E1745)</text>
<polyline fill="none" stroke="black" stroke-dasharray="5,2" points="795,-588.5 1136,-588.5 "/>
<text text-anchor="middle" x="965.5" y="-573.3" font-family="Times,serif" font-size="14.00" fill="#000000">1 hour, 17 minutes ago</text>
</g>
<!-- 0x847127fffed29a06&#45;&gt;0x00124b001949d694 -->
<g id="edge5" class="edge">
<title>0x847127fffed29a06&#45;&gt;0x00124b001949d694</title>
<path fill="none" stroke="#994444" d="M936.42,-565.26C913.29,-529.26 881.16,-479.28 858.57,-444.12"/>
<polygon fill="#994444" stroke="#994444" points="861.4,-442.04 853.05,-435.52 855.51,-445.83 861.4,-442.04"/>
<text text-anchor="middle" x="931" y="-496.8" font-family="Times,serif" font-size="14.00">11</text>
</g>
<!-- 0x000d6ffffe4b1c65 -->
<g id="node7" class="node">
<title>0x000d6ffffe4b1c65</title>
<path fill="#fff8ce" stroke="black" stroke-dasharray="5,2" d="M1166.5,-565.5C1166.5,-565.5 1488.5,-565.5 1488.5,-565.5 1494.5,-565.5 1500.5,-571.5 1500.5,-577.5 1500.5,-577.5 1500.5,-645.5 1500.5,-645.5 1500.5,-651.5 1494.5,-657.5 1488.5,-657.5 1488.5,-657.5 1166.5,-657.5 1166.5,-657.5 1160.5,-657.5 1154.5,-651.5 1154.5,-645.5 1154.5,-645.5 1154.5,-577.5 1154.5,-577.5 1154.5,-571.5 1160.5,-565.5 1166.5,-565.5"/>
<text text-anchor="middle" x="1327.5" y="-642.3" font-family="Times,serif" font-size="14.00" fill="#000000">IKEA/Fernbedienung/Terrasse</text>
<polyline fill="none" stroke="black" stroke-dasharray="5,2" points="1154.5,-634.5 1500.5,-634.5 "/>
<text text-anchor="middle" x="1327.5" y="-619.3" font-family="Times,serif" font-size="14.00" fill="#000000">0x000d6ffffe4b1c65 (0x901b)</text>
<polyline fill="none" stroke="black" stroke-dasharray="5,2" points="1154.5,-611.5 1500.5,-611.5 "/>
<text text-anchor="middle" x="1327.5" y="-596.3" font-family="Times,serif" font-size="14.00" fill="#000000">IKEA TRADFRI remote control (E1524/E1810)</text>
<polyline fill="none" stroke="black" stroke-dasharray="5,2" points="1154.5,-588.5 1500.5,-588.5 "/>
<text text-anchor="middle" x="1327.5" y="-573.3" font-family="Times,serif" font-size="14.00" fill="#000000">57 minutes, 33 seconds ago</text>
</g>
<!-- 0x000d6ffffe4b1c65&#45;&gt;0x00124b001949d694 -->
<g id="edge6" class="edge">
<title>0x000d6ffffe4b1c65&#45;&gt;0x00124b001949d694</title>
<path fill="none" stroke="#994444" d="M1220.18,-565.39C1130.67,-527.76 1004.64,-474.78 920.62,-439.46"/>
<polygon fill="#994444" stroke="#994444" points="921.93,-436.22 911.35,-435.57 919.21,-442.67 921.93,-436.22"/>
<text text-anchor="middle" x="1176" y="-496.8" font-family="Times,serif" font-size="14.00">20</text>
</g>
<!-- 0xbc33acfffe27ccf2 -->
<g id="node8" class="node">
<title>0xbc33acfffe27ccf2</title>
<path fill="#fff8ce" stroke="black" stroke-dasharray="5,2" d="M358,-454.5C358,-454.5 675,-454.5 675,-454.5 681,-454.5 687,-460.5 687,-466.5 687,-466.5 687,-534.5 687,-534.5 687,-540.5 681,-546.5 675,-546.5 675,-546.5 358,-546.5 358,-546.5 352,-546.5 346,-540.5 346,-534.5 346,-534.5 346,-466.5 346,-466.5 346,-460.5 352,-454.5 358,-454.5"/>
<text text-anchor="middle" x="516.5" y="-531.3" font-family="Times,serif" font-size="14.00" fill="#000000">IKEA/Bewegungsmelder/Buero</text>
<polyline fill="none" stroke="black" stroke-dasharray="5,2" points="346,-523.5 687,-523.5 "/>
<text text-anchor="middle" x="516.5" y="-508.3" font-family="Times,serif" font-size="14.00" fill="#000000">0xbc33acfffe27ccf2 (0x9865)</text>
<polyline fill="none" stroke="black" stroke-dasharray="5,2" points="346,-500.5 687,-500.5 "/>
<text text-anchor="middle" x="516.5" y="-485.3" font-family="Times,serif" font-size="14.00" fill="#000000">IKEA TRADFRI motion sensor (E1525/E1745)</text>
<polyline fill="none" stroke="black" stroke-dasharray="5,2" points="346,-477.5 687,-477.5 "/>
<text text-anchor="middle" x="516.5" y="-462.3" font-family="Times,serif" font-size="14.00" fill="#000000">31 minutes, 18 seconds ago</text>
</g>
<!-- 0xbc33acfffe27ccf2&#45;&gt;0x000d6ffffe62dab9 -->
<g id="edge7" class="edge">
<title>0xbc33acfffe27ccf2&#45;&gt;0x000d6ffffe62dab9</title>
<path fill="none" stroke="#994444" d="M517.74,-454.18C521.07,-424.7 530.46,-387.81 555.5,-366 596.83,-330 632.77,-379.68 677.5,-348 715.63,-321 694.45,-289 726.5,-255 730.48,-250.78 734.8,-246.74 739.34,-242.89"/>
<polygon fill="#994444" stroke="#994444" points="741.58,-245.58 747.18,-236.58 737.19,-240.12 741.58,-245.58"/>
<text text-anchor="middle" x="569.5" y="-397.3" font-family="Times,serif" font-size="14.00">198</text>
</g>
<!-- 0x04cd15fffe2d3b4e -->
<g id="node9" class="node">
<title>0x04cd15fffe2d3b4e</title>
<path fill="#fff8ce" stroke="black" stroke-dasharray="5,2" d="M488,-565.5C488,-565.5 765,-565.5 765,-565.5 771,-565.5 777,-571.5 777,-577.5 777,-577.5 777,-645.5 777,-645.5 777,-651.5 771,-657.5 765,-657.5 765,-657.5 488,-657.5 488,-657.5 482,-657.5 476,-651.5 476,-645.5 476,-645.5 476,-577.5 476,-577.5 476,-571.5 482,-565.5 488,-565.5"/>
<text text-anchor="middle" x="626.5" y="-642.3" font-family="Times,serif" font-size="14.00" fill="#000000">IKEA/Fernbedienung/Schlafzimmer</text>
<polyline fill="none" stroke="black" stroke-dasharray="5,2" points="476,-634.5 777,-634.5 "/>
<text text-anchor="middle" x="626.5" y="-619.3" font-family="Times,serif" font-size="14.00" fill="#000000">0x04cd15fffe2d3b4e (0xe805)</text>
<polyline fill="none" stroke="black" stroke-dasharray="5,2" points="476,-611.5 777,-611.5 "/>
<text text-anchor="middle" x="626.5" y="-596.3" font-family="Times,serif" font-size="14.00" fill="#000000">IKEA TRADFRI shortcut button (E1812)</text>
<polyline fill="none" stroke="black" stroke-dasharray="5,2" points="476,-588.5 777,-588.5 "/>
<text text-anchor="middle" x="626.5" y="-573.3" font-family="Times,serif" font-size="14.00" fill="#000000">9 minutes, 13 seconds ago</text>
</g>
<!-- 0x04cd15fffe2d3b4e&#45;&gt;0x000d6ffffe62dab9 -->
<g id="edge8" class="edge">
<title>0x04cd15fffe2d3b4e&#45;&gt;0x000d6ffffe62dab9</title>
<path fill="none" stroke="#994444" d="M678.1,-565.28C682.27,-559.55 685.89,-553.42 688.5,-547 704.09,-508.72 703.77,-492.41 688.5,-454 684.43,-443.77 675.57,-446.23 671.5,-436 660.01,-407.09 654.06,-391.76 671.5,-366 683.58,-348.16 700.37,-362.28 716.5,-348 751.79,-316.74 739.14,-292.66 767.5,-255 770.22,-251.39 773.14,-247.78 776.19,-244.22"/>
<polygon fill="#994444" stroke="#994444" points="778.99,-246.34 783.02,-236.53 773.76,-241.69 778.99,-246.34"/>
<text text-anchor="middle" x="685.5" y="-397.3" font-family="Times,serif" font-size="14.00">112</text>
</g>
<!-- 0x0c4314fffef8c1e9 -->
<g id="node10" class="node">
<title>0x0c4314fffef8c1e9</title>
<path fill="#fff8ce" stroke="black" stroke-dasharray="5,2" d="M1531,-565.5C1531,-565.5 1848,-565.5 1848,-565.5 1854,-565.5 1860,-571.5 1860,-577.5 1860,-577.5 1860,-645.5 1860,-645.5 1860,-651.5 1854,-657.5 1848,-657.5 1848,-657.5 1531,-657.5 1531,-657.5 1525,-657.5 1519,-651.5 1519,-645.5 1519,-645.5 1519,-577.5 1519,-577.5 1519,-571.5 1525,-565.5 1531,-565.5"/>
<text text-anchor="middle" x="1689.5" y="-642.3" font-family="Times,serif" font-size="14.00" fill="#000000">IKEA/Bewegungsmelder/Gaestezimmer</text>
<polyline fill="none" stroke="black" stroke-dasharray="5,2" points="1519,-634.5 1860,-634.5 "/>
<text text-anchor="middle" x="1689.5" y="-619.3" font-family="Times,serif" font-size="14.00" fill="#000000">0x0c4314fffef8c1e9 (0xdf0d)</text>
<polyline fill="none" stroke="black" stroke-dasharray="5,2" points="1519,-611.5 1860,-611.5 "/>
<text text-anchor="middle" x="1689.5" y="-596.3" font-family="Times,serif" font-size="14.00" fill="#000000">IKEA TRADFRI motion sensor (E1525/E1745)</text>
<polyline fill="none" stroke="black" stroke-dasharray="5,2" points="1519,-588.5 1860,-588.5 "/>
<text text-anchor="middle" x="1689.5" y="-573.3" font-family="Times,serif" font-size="14.00" fill="#000000">4 months, 1 week ago</text>
</g>
</g>
</svg>
